<svg xmlns="http://www.w3.org/2000/svg" xmlns:xlink="http://www.w3.org/1999/xlink" version="1.1" x="0px" y="0px" viewBox="0 0 100 125" style="enable-background:new 0 0 100 100;" xml:space="preserve"><path d="M92.1,40.8c0.1,0.1,0.2,0.1,0.3,0.1c0,0,0.1,0,0.1,0c0.1,0,0.3,0.1,0.4,0.1c0,0,0,0,0,0c0,0,0,0,0,0c0.2,0,0.3,0,0.5-0.1  c0,0,0.1,0,0.1,0c0.1,0,0.2-0.1,0.3-0.1c0,0,0.1,0,0.1-0.1c0.1-0.1,0.2-0.1,0.3-0.2c0,0,0,0,0.1,0c0.1-0.1,0.2-0.2,0.3-0.4  c0,0,0,0,0,0c0,0,0-0.1,0.1-0.1c0-0.1,0.1-0.1,0.1-0.2c0-0.1,0-0.1,0-0.2c0-0.1,0-0.1,0-0.2c0-0.1,0-0.1,0-0.2c0,0,0-0.1,0-0.1v-7  c0,0,0,0,0-0.1c0-0.1,0-0.2,0-0.2c0-0.1,0-0.1,0-0.2c0-0.1,0-0.1,0-0.2c0-0.1,0-0.1-0.1-0.2c0,0-0.1-0.1-0.1-0.2  c0-0.1-0.1-0.1-0.1-0.2c0,0-0.1-0.1-0.1-0.1c0-0.1-0.1-0.1-0.1-0.2c0,0-0.1-0.1-0.1-0.1c-0.1,0-0.1-0.1-0.2-0.1c0,0,0,0-0.1,0  l-43-25c0,0,0,0-0.1,0c-0.1,0-0.1-0.1-0.2-0.1c-0.1,0-0.1,0-0.2-0.1c-0.1,0-0.1,0-0.2,0c-0.1,0-0.1,0-0.2,0h-0.4c-0.1,0-0.1,0-0.2,0  c-0.1,0-0.1,0-0.2,0c-0.1,0-0.1,0-0.2,0.1c-0.1,0-0.1,0-0.2,0.1c0,0,0,0-0.1,0L21,21.5V10c0-1.1-0.9-2-2-2s-2,0.9-2,2v13.9L6,30.3  c0,0,0,0,0,0c-0.1,0-0.1,0.1-0.2,0.1c-0.1,0-0.1,0.1-0.1,0.1c0,0-0.1,0.1-0.1,0.1c0,0-0.1,0.1-0.1,0.1c0,0.1-0.1,0.1-0.1,0.2  c0,0-0.1,0.1-0.1,0.2c0,0.1,0,0.1-0.1,0.2c0,0.1,0,0.1,0,0.2c0,0.1,0,0.1,0,0.2c0,0.1,0,0.1,0,0.2c0,0,0,0,0,0.1v7c0,0,0,0.1,0,0.1  c0,0.1,0,0.2,0,0.2c0,0.1,0,0.1,0,0.2c0,0.1,0,0.1,0,0.2c0,0.1,0.1,0.1,0.1,0.2c0,0,0,0.1,0.1,0.1c0,0,0,0,0,0  c0.1,0.1,0.2,0.3,0.3,0.4c0,0,0,0,0.1,0c0.1,0.1,0.2,0.2,0.3,0.2c0,0,0.1,0,0.1,0.1c0.1,0.1,0.2,0.1,0.3,0.1c0,0,0.1,0,0.1,0  C6.7,41,6.8,41,7,41c0,0,0,0,0,0h0c0.1,0,0.3,0,0.4-0.1c0,0,0.1,0,0.1,0c0.1,0,0.2-0.1,0.3-0.1c0,0,0,0,0.1,0c0,0.1,0,0.2,0,0.3  c0,1.5,0.6,2.9,1.5,4c-1,1.1-1.5,2.5-1.5,4c0,1.5,0.6,2.9,1.5,4c-1,1.1-1.5,2.5-1.5,4c0,1.5,0.6,2.9,1.5,4c-1,1.1-1.5,2.5-1.5,4  c0,1.5,0.6,2.9,1.5,4c-1,1.1-1.5,2.5-1.5,4c0,1.5,0.6,2.9,1.5,4c-1,1.1-1.5,2.5-1.5,4c0,1.5,0.6,2.9,1.5,4c-1,1.1-1.5,2.5-1.5,4  c0,0.7,0.1,1.4,0.3,2H7c-1.1,0-2,0.9-2,2c0,1.1,0.9,2,2,2h86c1.1,0,2-0.9,2-2c0-1.1-0.9-2-2-2h-1.3c0.2-0.6,0.3-1.3,0.3-2  c0-1.5-0.6-2.9-1.5-4c1-1.1,1.5-2.5,1.5-4c0-1.5-0.6-2.9-1.5-4c1-1.1,1.5-2.5,1.5-4c0-1.5-0.6-2.9-1.5-4c1-1.1,1.5-2.5,1.5-4  c0-1.5-0.6-2.9-1.5-4c1-1.1,1.5-2.5,1.5-4c0-1.5-0.6-2.9-1.5-4c1-1.1,1.5-2.5,1.5-4c0-1.5-0.6-2.9-1.5-4c1-1.1,1.5-2.5,1.5-4  C92,40.9,92,40.8,92.1,40.8L92.1,40.8C92,40.7,92,40.8,92.1,40.8z M14,91c-1.1,0-2-0.9-2-2c0-1.1,0.9-2,2-2s2,0.9,2,2  C16,90.1,15.1,91,14,91z M14,83c-1.1,0-2-0.9-2-2c0-1.1,0.9-2,2-2s2,0.9,2,2C16,82.1,15.1,83,14,83z M14,75c-1.1,0-2-0.9-2-2  c0-1.1,0.9-2,2-2s2,0.9,2,2C16,74.1,15.1,75,14,75z M14,67c-1.1,0-2-0.9-2-2c0-1.1,0.9-2,2-2s2,0.9,2,2C16,66.1,15.1,67,14,67z   M14,59c-1.1,0-2-0.9-2-2c0-1.1,0.9-2,2-2s2,0.9,2,2C16,58.1,15.1,59,14,59z M14,51c-1.1,0-2-0.9-2-2c0-1.1,0.9-2,2-2s2,0.9,2,2  C16,50.1,15.1,51,14,51z M14,43c-1.1,0-2-0.9-2-2c0-1.1,0.9-2,2-2s2,0.9,2,2C16,42.1,15.1,43,14,43z M36,91H19.7  c0.2-0.6,0.3-1.3,0.3-2s-0.1-1.4-0.3-2H36V91z M36,83H19.7c0.2-0.6,0.3-1.3,0.3-2s-0.1-1.4-0.3-2H36V83z M36,75H19.7  c0.2-0.6,0.3-1.3,0.3-2s-0.1-1.4-0.3-2H36V75z M36,67H19.7c0.2-0.6,0.3-1.3,0.3-2s-0.1-1.4-0.3-2H36V67z M36.6,59H19.7  c0.2-0.6,0.3-1.3,0.3-2s-0.1-1.4-0.3-2h18.9C37.7,56.2,37,57.5,36.6,59z M44,91h-4V63c0-3.3,1.6-6.2,4-8V91z M52,91h-4V53.2  c0.7-0.1,1.3-0.2,2-0.2s1.3,0.1,2,0.2V91z M60,72v19h-4V72V55c2.4,1.8,4,4.7,4,8V72z M80.3,91H64v-4h16.3c-0.2,0.6-0.3,1.3-0.3,2  S80.1,90.4,80.3,91z M80.3,83H64v-4h16.3c-0.2,0.6-0.3,1.3-0.3,2S80.1,82.4,80.3,83z M80.3,75H64v-4h16.3c-0.2,0.6-0.3,1.3-0.3,2  S80.1,74.4,80.3,75z M80.3,67H64v-4h16.3c-0.2,0.6-0.3,1.3-0.3,2S80.1,66.4,80.3,67z M80.3,59H63.4c-0.4-1.5-1.1-2.8-1.9-4h18.9  c-0.2,0.6-0.3,1.3-0.3,2S80.1,58.4,80.3,59z M80.3,51H57.2c-2.1-1.3-4.5-2-7.2-2s-5.1,0.7-7.2,2H19.7c0.2-0.6,0.3-1.3,0.3-2  s-0.1-1.4-0.3-2h60.7c-0.2,0.6-0.3,1.3-0.3,2S80.1,50.4,80.3,51z M80.3,43H19.7c0.2-0.6,0.3-1.3,0.3-2s-0.1-1.4-0.3-2h60.7  c-0.2,0.6-0.3,1.3-0.3,2S80.1,42.4,80.3,43z M17.9,35l6.9-4h50.5l6.9,4H17.9z M61.5,23l6.9,4H31.6l6.9-4H61.5z M45.4,19l4.6-2.7  l4.6,2.7H45.4z M86,91c-1.1,0-2-0.9-2-2c0-1.1,0.9-2,2-2s2,0.9,2,2C88,90.1,87.1,91,86,91z M86,83c-1.1,0-2-0.9-2-2c0-1.1,0.9-2,2-2  s2,0.9,2,2C88,82.1,87.1,83,86,83z M86,75c-1.1,0-2-0.9-2-2c0-1.1,0.9-2,2-2s2,0.9,2,2C88,74.1,87.1,75,86,75z M86,67  c-1.1,0-2-0.9-2-2c0-1.1,0.9-2,2-2s2,0.9,2,2C88,66.1,87.1,67,86,67z M86,59c-1.1,0-2-0.9-2-2c0-1.1,0.9-2,2-2s2,0.9,2,2  C88,58.1,87.1,59,86,59z M86,51c-1.1,0-2-0.9-2-2c0-1.1,0.9-2,2-2s2,0.9,2,2C88,50.1,87.1,51,86,51z M86,43c-1.1,0-2-0.9-2-2  c0-1.1,0.9-2,2-2s2,0.9,2,2C88,42.1,87.1,43,86,43z M91,35.5L51,12.3c0,0,0,0-0.1,0c-0.1,0-0.1-0.1-0.2-0.1c0,0-0.1,0-0.2-0.1  c-0.1,0-0.1,0-0.2,0c-0.1,0-0.1,0-0.2,0h-0.4c-0.1,0-0.1,0-0.2,0c-0.1,0-0.1,0-0.2,0c-0.1,0-0.1,0-0.2,0.1c-0.1,0-0.1,0.1-0.2,0.1  c0,0,0,0-0.1,0L9,35.5v-2.4L50,9.3l41,23.8V35.5z M60,71.6c0,0.1,0,0.3,0,0.4c0,0.5-0.2,1-0.6,1.4c-0.2,0.2-0.4,0.3-0.6,0.4  C58.5,74,58.3,74,58,74s-0.5,0-0.8-0.2c-0.2-0.1-0.5-0.2-0.6-0.4C56.2,73,56,72.5,56,72c0-0.1,0-0.3,0-0.4c0-0.1,0.1-0.3,0.1-0.4  c0-0.1,0.1-0.2,0.2-0.3c0.1-0.1,0.1-0.2,0.2-0.3c0.1-0.1,0.2-0.2,0.3-0.2s0.2-0.1,0.3-0.2c0.1,0,0.2-0.1,0.4-0.1c0.3,0,0.5,0,0.8,0  c0.1,0,0.2,0.1,0.4,0.1c0.1,0.1,0.2,0.1,0.3,0.2s0.2,0.2,0.3,0.2c0.1,0.1,0.2,0.2,0.2,0.3c0.1,0.1,0.1,0.2,0.2,0.3  C59.9,71.3,59.9,71.5,60,71.6z"/></svg>